<?xml version="1.0" encoding="UTF-8"?>
<svg version="1.1" xmlns="http://www.w3.org/2000/svg" width="512" height="512">
<path d="M0 0 C168.96 0 337.92 0 512 0 C512 168.96 512 337.92 512 512 C343.04 512 174.08 512 0 512 C0 343.04 0 174.08 0 0 Z " fill="#000000" transform="translate(0,0)"/>
<path d="M0 0 C13.23899338 11.58660774 24.16845028 25.85959059 26.41015625 43.8359375 C27.4803025 65.44614301 23.83663307 84.1290124 9.16015625 100.8984375 C7.59549349 102.56203068 6.01196662 104.20808144 4.41015625 105.8359375 C3.64832031 106.61066406 2.88648438 107.38539063 2.1015625 108.18359375 C-16.5457889 126.03483491 -42.90432392 132.38454444 -68.08496094 132.1875 C-90.49268864 131.65274481 -111.30369099 124.1860834 -128.58984375 109.8359375 C-129.1828125 109.38863281 -129.77578125 108.94132813 -130.38671875 108.48046875 C-143.09842366 98.53851606 -152.5874617 80.78348028 -154.58984375 64.8359375 C-156.08532648 44.94601722 -152.61383264 26.81832279 -139.546875 11.046875 C-138.57814453 9.95246094 -138.57814453 9.95246094 -137.58984375 8.8359375 C-136.87183594 8.02382812 -136.15382813 7.21171875 -135.4140625 6.375 C-101.73168754 -29.45731379 -37.20904183 -31.09171821 0 0 Z " fill="#FCFCFC" transform="translate(255.58984375,197.1640625)"/>
<path d="M0 0 C1.58941406 0.0009668 1.58941406 0.0009668 3.2109375 0.00195312 C4.86996094 0.02612305 4.86996094 0.02612305 6.5625 0.05078125 C8.22152344 0.04594727 8.22152344 0.04594727 9.9140625 0.04101562 C18.16188076 0.09620176 18.16188076 0.09620176 21.5625 2.36328125 C21.93164349 4.9519825 21.93164349 4.9519825 21.92326355 8.29837036 C21.92738754 9.5632428 21.93151154 10.82811523 21.9357605 12.13131714 C21.92514234 13.54083463 21.9142379 14.95034999 21.90307617 16.35986328 C21.90223033 17.83797183 21.9027042 19.31608164 21.90440369 20.79418945 C21.90526676 24.81471364 21.88759076 28.83497099 21.86668181 32.85543299 C21.84796685 37.05415156 21.84616867 41.2528758 21.84260559 45.45162964 C21.83326985 53.40604849 21.80863546 61.36034409 21.77855712 69.31470859 C21.74506059 78.36897887 21.72853907 87.42325494 21.71347082 96.47757173 C21.68208718 115.10621152 21.62929707 133.73473649 21.5625 152.36328125 C22.75187164 152.3532885 22.75187164 152.3532885 23.965271 152.34309387 C31.43980776 152.28296861 38.91422718 152.2372998 46.38894272 152.20784473 C50.23173087 152.19219246 54.0743191 152.17096252 57.91699219 152.13696289 C61.62579563 152.1043533 65.33440684 152.08642494 69.04334259 152.07864952 C70.45793941 152.07310884 71.87252578 152.06228913 73.28704071 152.04609108 C75.26905548 152.02429824 77.2512639 152.02305569 79.23339844 152.02270508 C80.36146912 152.01604324 81.48953979 152.00938141 82.65179443 152.0025177 C85.8858344 152.4033565 87.25537735 153.10089529 89.5625 155.36328125 C90.08007812 157.38452148 90.08007812 157.38452148 90.09375 159.671875 C90.10148437 160.91614258 90.10148437 160.91614258 90.109375 162.18554688 C90.08617187 163.48008789 90.08617187 163.48008789 90.0625 164.80078125 C90.08570313 166.08952148 90.08570313 166.08952148 90.109375 167.40429688 C90.10421875 168.23509766 90.0990625 169.06589844 90.09375 169.921875 C90.08923828 170.67782959 90.08472656 171.43378418 90.08007812 172.21264648 C89.34070769 175.28487016 88.01454628 176.39812629 85.5625 178.36328125 C82.65179443 178.84429932 82.65179443 178.84429932 79.23339844 178.81738281 C77.95237244 178.81708069 76.67134644 178.81677856 75.35150146 178.81646729 C73.95828629 178.7960422 72.5650775 178.77517824 71.171875 178.75390625 C69.74270418 178.74644256 68.3135231 178.74075023 66.88433838 178.73675537 C63.12922738 178.72150875 59.37473875 178.68223641 55.61987305 178.63793945 C51.78573017 178.59696512 47.95148638 178.57873981 44.1171875 178.55859375 C36.5986751 178.51574028 29.08067488 178.44750192 21.5625 178.36328125 C21.56526538 179.04080853 21.56803076 179.71833582 21.57087994 180.41639423 C21.63709023 196.89085395 21.68675638 213.3652716 21.71793652 229.83983326 C21.73341521 237.80676357 21.75452376 245.77360515 21.78881836 253.74047852 C21.81869017 260.68320816 21.83806771 267.62587356 21.84476548 274.56866568 C21.84868154 278.24593443 21.85790535 281.92301935 21.87969017 285.60022926 C21.90379426 289.70207551 21.90447143 293.80360078 21.90307617 297.90551758 C21.913862 299.12902924 21.92464783 300.35254089 21.9357605 301.61312866 C21.92957451 303.28531715 21.92957451 303.28531715 21.92326355 304.99128723 C21.92602893 305.96193524 21.92879431 306.93258326 21.93164349 307.93264484 C21.5625 310.36328125 21.5625 310.36328125 20.18922901 312.17377758 C16.61062205 314.7905417 11.37817206 313.82939586 7.125 313.80078125 C6.07505859 313.82076172 5.02511719 313.84074219 3.94335938 313.86132812 C2.42645508 313.86036133 2.42645508 313.86036133 0.87890625 313.859375 C-0.50639282 313.86215454 -0.50639282 313.86215454 -1.91967773 313.86499023 C-5.25208529 313.20096449 -6.30689392 311.97555833 -8.4375 309.36328125 C-8.93774599 306.90785831 -8.93774599 306.90785831 -8.93807125 304.10055447 C-8.94788554 303.02852132 -8.95769983 301.95648818 -8.96781152 300.85196918 C-8.95820652 299.67503673 -8.94860151 298.49810428 -8.93870544 297.2855072 C-8.94423984 296.03463918 -8.94977424 294.78377115 -8.95547634 293.49499804 C-8.97025986 290.02079027 -8.96003305 286.54703441 -8.94573963 283.07284105 C-8.93465009 279.32705647 -8.94656566 275.58133633 -8.95558167 271.83555603 C-8.96952957 264.49701673 -8.96194678 257.15864926 -8.94690608 249.82011812 C-8.93006538 241.27902423 -8.93325375 232.73797337 -8.93700016 224.19686801 C-8.94288149 208.96088178 -8.92869602 193.72497814 -8.90405273 178.48901367 C-8.88012694 163.69503687 -8.87304976 148.90117041 -8.88354492 134.10717773 C-8.89494615 118.00708448 -8.89689437 101.9070423 -8.88244683 85.80694968 C-8.88092094 84.09125078 -8.87940059 82.37555188 -8.87788582 80.65985298 C-8.877128 79.81563733 -8.87637019 78.97142167 -8.87558941 78.10162373 C-8.87084076 72.14379571 -8.8727021 66.18599044 -8.87695122 60.22816277 C-8.88187047 52.97132453 -8.87592665 45.71459075 -8.85605692 38.45777648 C-8.8461642 34.75311433 -8.841101 31.04861147 -8.84894943 27.34394073 C-8.85727134 23.33383246 -8.84246677 19.32415114 -8.82518005 15.31407166 C-8.8311901 14.13490848 -8.83720014 12.9557453 -8.84339231 11.74084991 C-8.83495237 10.67142452 -8.82651243 9.60199912 -8.81781673 8.50016689 C-8.8167876 7.57391898 -8.81575848 6.64767106 -8.81469816 5.69335502 C-7.96861234 0.4668121 -4.75523643 -0.01460356 0 0 Z " fill="#FDFDFD" transform="translate(359.4375,56.63671875)"/>
<path d="M0 0 C1.04220703 -0.01224609 2.08441406 -0.02449219 3.15820312 -0.03710938 C9.45554523 -0.04896878 15.12178665 0.49507979 21.1875 2.1875 C22.73050781 2.59548828 22.73050781 2.59548828 24.3046875 3.01171875 C37.19545015 7.04692915 49.03234017 14.59556695 56.109375 26.390625 C61.82085489 37.65039965 62.97507907 49.16788675 60.50390625 61.63671875 C55.75385278 75.45326433 45.93431017 85.48391851 33.1875 92.1875 C32.47980469 92.56777344 31.77210938 92.94804687 31.04296875 93.33984375 C15.0471746 101.20419523 -5.89829903 101.58233482 -22.8125 96.1875 C-37.58031748 90.48284054 -50.11680888 81.98966915 -56.93359375 67.30078125 C-61.73708059 55.75106401 -62.53912647 44.8245653 -58.06640625 32.96484375 C-51.83577305 19.16428236 -40.5459284 9.46786114 -26.58984375 3.90234375 C-17.5869481 0.78981849 -9.47754464 0.00579666 0 0 Z " fill="#010101" transform="translate(190.8125,202.8125)"/>
<path d="M0 0 C1.10472656 -0.00386719 2.20945313 -0.00773437 3.34765625 -0.01171875 C4.50136719 -0.00011719 5.65507812 0.01148438 6.84375 0.0234375 C8.57431641 0.00603516 8.57431641 0.00603516 10.33984375 -0.01171875 C11.44457031 -0.00785156 12.54929688 -0.00398438 13.6875 0 C14.70005859 0.00338379 15.71261719 0.00676758 16.75585938 0.01025391 C19.34375 0.3984375 19.34375 0.3984375 20.98144531 1.51325989 C22.99782302 4.30355353 22.72264327 6.53280176 22.72851562 9.94946289 C22.7338884 10.60993118 22.73926117 11.27039948 22.74479675 11.95088196 C22.75457205 13.38316485 22.75751963 14.81550696 22.75444031 16.2478199 C22.74996655 18.51303073 22.76394739 20.77745857 22.78283691 23.04258728 C22.8258883 28.66627095 22.83688517 34.28993773 22.84906006 39.91375732 C22.86056902 44.66838099 22.88407012 49.4226476 22.92375183 54.17712212 C22.93736806 56.41193797 22.93314359 58.64627739 22.92834473 60.88111877 C22.93768125 62.24635434 22.94784903 63.61158456 22.95898438 64.97680664 C22.96103882 66.1713295 22.96309326 67.36585236 22.96520996 68.59657288 C23.09012817 69.5211882 23.21504639 70.44580353 23.34375 71.3984375 C27.31915483 74.04870738 30.76292279 73.68074874 35.37805176 73.66345215 C36.31363183 73.66783342 37.24921189 73.67221469 38.21314287 73.67672873 C41.36154433 73.68909263 44.50978014 73.68723764 47.65820312 73.68554688 C49.90990955 73.69156822 52.16161372 73.69849173 54.41331482 73.70625305 C59.26858686 73.72116468 64.1238176 73.72989689 68.97911072 73.73396301 C76.65054461 73.74066145 84.32188989 73.76239751 91.99328613 73.78649902 C102.74372712 73.81886484 113.49416065 73.8457083 124.24462891 73.86669922 C124.92699625 73.86803421 125.6093636 73.8693692 126.31240875 73.87074465 C131.15618879 73.8801726 135.99996933 73.88933582 140.84375 73.8984375 C146.37679073 73.90883433 151.90983119 73.91935088 157.44287109 73.93017578 C158.4651775 73.93217189 158.4651775 73.93217189 159.50813657 73.93420833 C170.86376398 73.95662254 182.21935424 73.98689193 193.57494879 74.02256823 C201.2069351 74.04597131 208.83885991 74.05967141 216.4708786 74.06606293 C221.21173647 74.07198478 225.95254423 74.08606642 230.69337654 74.10240746 C232.89809077 74.10830314 235.1028172 74.11075162 237.30753899 74.10956764 C240.30828296 74.10841522 243.30874276 74.11937071 246.30944824 74.13342285 C247.62981166 74.12847439 247.62981166 74.12847439 248.97684908 74.12342596 C255.00147163 74.17025192 255.00147163 74.17025192 258.34375 76.3984375 C259.00287126 79.83582457 258.80674666 83.34289475 258.78125 86.8359375 C258.80123047 87.80337891 258.82121094 88.77082031 258.84179688 89.76757812 C258.84115234 90.69634766 258.84050781 91.62511719 258.83984375 92.58203125 C258.84169678 93.43337646 258.8435498 94.28472168 258.84545898 95.16186523 C258.34375 97.3984375 258.34375 97.3984375 256.91008186 99.01441383 C252.96420715 101.14242544 249.19673842 100.81153722 244.7807312 100.77938843 C243.30998396 100.78640839 243.30998396 100.78640839 241.80952466 100.79357016 C238.51464432 100.80556311 235.22017661 100.79604579 231.92529297 100.78662109 C229.56657162 100.79068503 227.20785218 100.79602591 224.84913635 100.80255127 C218.43356987 100.81625621 212.01814773 100.81091186 205.60257864 100.80141401 C201.59430391 100.79608442 197.58603909 100.79708517 193.5777626 100.7998848 C192.5796133 100.80057434 192.5796133 100.80057434 191.56129936 100.80127782 C190.2094058 100.80223702 188.85751225 100.80320966 187.50561871 100.8041956 C174.82230336 100.81275419 162.13905302 100.80291009 149.45574833 100.7867945 C138.58537509 100.77340939 127.71509804 100.77570354 116.84472656 100.78955078 C104.2161002 100.8056303 91.58753097 100.81191068 78.9588958 100.80271399 C77.61014121 100.80175838 76.2613866 100.80081527 74.91263199 100.7998848 C74.24906849 100.79942197 73.58550498 100.79895914 72.9018335 100.79848229 C68.23820348 100.79589812 63.57462975 100.80039875 58.91100693 100.80732346 C52.62207153 100.81600831 46.33331708 100.80994317 40.04440117 100.79264069 C37.73941917 100.78868297 35.43442188 100.78979759 33.12944603 100.79642868 C29.97565056 100.80466299 26.82242981 100.79429916 23.66867065 100.77938843 C22.76280901 100.78608059 21.85694736 100.79277276 20.92363536 100.79966772 C12.48844345 100.7226607 4.13363709 99.23677438 -2.1875 93.2734375 C-7.59536787 86.3697764 -8.77196025 77.67026006 -8.81738281 69.17724609 C-8.82234772 68.46932419 -8.82731262 67.76140228 -8.83242798 67.0320282 C-8.84696655 64.70363375 -8.85383495 62.37530726 -8.859375 60.046875 C-8.86512997 58.42453002 -8.87088766 56.80218505 -8.87664795 55.17984009 C-8.88713192 51.78558029 -8.8929927 48.39134401 -8.89648438 44.99707031 C-8.90198684 40.64451936 -8.92606276 36.29227843 -8.95445633 31.93982506 C-8.97305459 28.59242836 -8.97828663 25.24510712 -8.97982025 21.89766312 C-8.98284985 20.29245927 -8.99088874 18.68725684 -9.00400543 17.08210373 C-9.0210199 14.84143891 -9.01919832 12.60154266 -9.01269531 10.36083984 C-9.01634094 9.08574554 -9.01998657 7.81065125 -9.02374268 6.49691772 C-8.65625 3.3984375 -8.65625 3.3984375 -7.29571533 1.48754883 C-4.86510087 -0.12712987 -2.89526825 0.00967547 0 0 Z " fill="#FDFDFD" transform="translate(142.65625,355.6015625)"/>
<path d="M0 0 C1.52103298 -0.00724325 1.52103298 -0.00724325 3.0727939 -0.01463282 C6.48087206 -0.02593164 9.88820456 -0.00856299 13.29624939 0.00863647 C15.7352926 0.00649132 18.17433481 0.00261469 20.6133728 -0.00286865 C26.55625117 -0.01156996 32.49892742 -0.0016692 38.44176728 0.01683195 C45.35963859 0.03759496 52.27746172 0.03745971 59.19535833 0.03648679 C71.53632737 0.03548544 83.87719275 0.05381202 96.21812439 0.08285522 C108.19893787 0.11103641 120.17966012 0.12519652 132.1605072 0.12387085 C132.898535 0.12379094 133.6365628 0.12371102 134.39695508 0.12362869 C135.13369505 0.12354798 135.87043502 0.12346727 136.62950045 0.12338412 C150.26186105 0.1220051 163.89418282 0.13377993 177.52653085 0.15169055 C182.35122591 0.15772788 187.17591384 0.15985021 192.00061226 0.16075516 C198.49058606 0.16226037 204.98047594 0.17493158 211.47042274 0.19508743 C213.85735738 0.2009451 216.24430311 0.20338663 218.63124466 0.20223236 C221.87934803 0.20125578 225.12717865 0.21251458 228.37524414 0.22705078 C229.8054764 0.22240498 229.8054764 0.22240498 231.26460224 0.21766531 C232.56568492 0.22733865 232.56568492 0.22733865 233.8930521 0.23720741 C235.01813863 0.23932069 235.01813863 0.23932069 236.16595417 0.24147666 C238.12413025 0.49447632 238.12413025 0.49447632 241.12413025 2.49447632 C241.78647095 6.0991305 241.58708291 9.77373456 241.56163025 13.43197632 C241.58161072 14.44711304 241.60159119 15.46224976 241.62217712 16.50814819 C241.62121033 17.96897827 241.62121033 17.96897827 241.620224 19.45932007 C241.62207703 20.35255981 241.62393005 21.24579956 241.62583923 22.16610718 C241.12413025 24.49447632 241.12413025 24.49447632 239.70722198 26.11576939 C235.68536264 28.26240834 231.7840667 27.9106683 227.29295349 27.88215637 C226.28372062 27.88754191 225.27448775 27.89292745 224.23467207 27.89847618 C220.84288412 27.91281758 217.45148304 27.90563671 214.05967712 27.89852905 C211.63210739 27.90422934 209.20454034 27.91119226 206.77697754 27.91932678 C200.8618886 27.93544105 194.94689771 27.93735143 189.03179848 27.93211388 C184.22499458 27.92807439 179.41822208 27.92951309 174.61141968 27.93486214 C173.9276023 27.93561056 173.24378493 27.93635898 172.53924581 27.93713008 C171.15013587 27.93866154 169.76102593 27.94019988 168.371916 27.94174505 C155.34256289 27.9554759 142.31326982 27.95002809 129.28391808 27.93855984 C117.35930692 27.92862466 105.43485086 27.94157193 93.51026362 27.96549403 C81.26980718 27.98986508 69.02942304 27.99949796 56.78894281 27.9928413 C49.91531012 27.9893449 43.04179676 27.99160885 36.16818237 28.00909233 C29.70689318 28.02532304 23.24582776 28.02066381 16.78454399 28.00178719 C14.40931189 27.99808699 12.03405802 28.00125109 9.6588459 28.01167297 C6.42398563 28.02478629 3.19012344 28.01342074 -0.04469299 27.99568176 C-1.46471957 28.01008927 -1.46471957 28.01008927 -2.91343355 28.02478784 C-9.25212431 27.95294348 -9.25212431 27.95294348 -12.45796967 25.59657383 C-14.06883656 23.20839477 -14.38990983 21.94753109 -14.40711975 19.08822632 C-14.412276 18.26193726 -14.41743225 17.43564819 -14.42274475 16.58432007 C-14.407276 15.72967163 -14.39180725 14.87502319 -14.37586975 13.99447632 C-14.3913385 13.13982788 -14.40680725 12.28517944 -14.42274475 11.40463257 C-14.4175885 10.57834351 -14.41243225 9.75205444 -14.40711975 8.90072632 C-14.40260803 8.15113647 -14.39809631 7.40154663 -14.39344788 6.62924194 C-12.59916921 -0.77131118 -6.22288943 -0.06729582 0 0 Z " fill="#F9F9F9" transform="translate(77.87586975097656,127.50552368164063)"/>
<path d="M0 0 C1.06838608 -0.00845947 2.13677216 -0.01691895 3.23753357 -0.02563477 C4.4095784 -0.01956207 5.58162323 -0.01348938 6.78918457 -0.00723267 C8.02350723 -0.01248962 9.2578299 -0.01774658 10.52955627 -0.02316284 C13.9160288 -0.03411597 17.30195258 -0.03153244 20.68839455 -0.02202559 C24.23042164 -0.01443611 27.77242512 -0.02147261 31.31445312 -0.02618408 C37.26294165 -0.03164373 43.21131847 -0.02444461 49.15979004 -0.01016235 C56.03938292 0.00616465 62.91870908 0.00087629 69.7982955 -0.01564157 C75.70241121 -0.02925055 81.60644658 -0.03117901 87.51057291 -0.02332556 C91.03797179 -0.01864577 94.56524526 -0.01803248 98.09263611 -0.02793503 C102.02414335 -0.03820089 105.95535125 -0.02397681 109.88684082 -0.00723267 C111.05888565 -0.01330536 112.23093048 -0.01937805 113.43849182 -0.02563477 C115.04107094 -0.01294556 115.04107094 -0.01294556 116.67602539 0 C118.07084515 0.00169662 118.07084515 0.00169662 119.49384308 0.00342751 C122.28092231 0.45228056 123.16994208 1.14093509 124.8380127 3.38095093 C125.46931089 6.85061155 125.30143471 10.36026971 125.2755127 13.88095093 C125.29549316 14.84388062 125.31547363 15.8068103 125.33605957 16.79891968 C125.33509277 18.1853064 125.33509277 18.1853064 125.33410645 19.59970093 C125.33595947 20.4446814 125.3378125 21.28966187 125.33972168 22.1602478 C124.8380127 24.38095093 124.8380127 24.38095093 123.13162994 25.99593544 C120.39549125 27.64817034 118.8176831 27.75796283 115.63842773 27.76190186 C114.58694046 27.77036133 113.53545319 27.7788208 112.45210266 27.78753662 C111.30392563 27.78146393 110.1557486 27.77539124 108.97277832 27.76913452 C107.75942307 27.77439148 106.54606781 27.77964844 105.29594421 27.7850647 C101.97144119 27.79600596 98.64749829 27.79344189 95.32302666 27.78392744 C91.84286627 27.77632846 88.3627297 27.78337711 84.88256836 27.78808594 C79.03840847 27.79354281 73.19436234 27.78635374 67.35021973 27.77206421 C60.59502435 27.75573773 53.84010062 27.76102629 47.08491182 27.77754343 C41.28351915 27.79116031 35.48220822 27.79307699 29.68080473 27.78522742 C26.21654527 27.78055198 22.75241347 27.7799224 19.28816223 27.78983688 C15.42641655 27.80011711 11.56497478 27.78586576 7.70324707 27.76913452 C6.55507004 27.77520721 5.40689301 27.78127991 4.22392273 27.78753662 C3.17243546 27.77907715 2.12094818 27.77061768 1.03759766 27.76190186 C0.12468712 27.76077078 -0.78822342 27.7596397 -1.72879791 27.75847435 C-4.64856237 27.30545599 -6.03057304 26.39820118 -8.1619873 24.38095093 C-8.66369629 22.1602478 -8.66369629 22.1602478 -8.65808105 19.59970093 C-8.65872559 18.67544312 -8.65937012 17.7511853 -8.66003418 16.79891968 C-8.64005371 15.83598999 -8.62007324 14.8730603 -8.5994873 13.88095093 C-8.60657715 12.91802124 -8.61366699 11.95509155 -8.62097168 10.96298218 C-8.5570458 3.91146642 -8.5570458 3.91146642 -6.95935822 1.76596642 C-4.54335284 -0.09575553 -3.03404838 0.00369052 0 0 Z " fill="#FCFCFC" transform="translate(130.1619873046875,67.61904907226563)"/>
</svg>
